<svg version="1.1" id="Layer_1" xmlns="http://www.w3.org/2000/svg" xmlns:xlink="http://www.w3.org/1999/xlink" x="0px" y="0px"
	 width="60px" height="60px" viewBox="0 0 100 100" xml:space="preserve">
	 <circle cx="50" cy="50" r="50" fill="#74ad8e" />
<g transform="translate(0,-10)">
	<path d="M55.693,49.974c-0.736-0.376-1.642-0.086-2.019,0.652L43.625,70.267c-0.377,0.738-0.085,1.642,0.652,2.019
		c0.219,0.112,0.452,0.165,0.682,0.165c0.545,0,1.071-0.298,1.336-0.816l10.048-19.641C56.723,51.255,56.431,50.352,55.693,49.974z"
		fill="#000"/>
	<path d="M66.208,49.224c-0.586-0.585-1.535-0.585-2.121,0s-0.586,1.536,0,2.121l9.583,9.58l-9.583,9.58
		c-0.586,0.585-0.586,1.535,0,2.121c0.293,0.293,0.677,0.439,1.061,0.439s0.768-0.146,1.061-0.439l10.645-10.641
		c0.281-0.281,0.439-0.663,0.439-1.061s-0.158-0.779-0.439-1.061L66.208,49.224z" fill="#000"/>
	<path d="M35.911,49.225c-0.585-0.586-1.535-0.586-2.121,0L23.147,59.865c-0.281,0.281-0.439,0.663-0.439,1.061
		s0.158,0.779,0.439,1.061L33.79,72.627c0.293,0.293,0.677,0.439,1.061,0.439s0.768-0.146,1.061-0.439
		c0.586-0.586,0.586-1.535,0-2.121l-9.581-9.58l9.581-9.58C36.497,50.76,36.497,49.811,35.911,49.225z" fill="#000"/>
</g>
</svg>